<?xml version="1.0" standalone="no"?>
<!DOCTYPE svg PUBLIC "-//W3C//DTD SVG 20010904//EN"
 "http://www.w3.org/TR/2001/REC-SVG-20010904/DTD/svg10.dtd">
<svg version="1.0" xmlns="http://www.w3.org/2000/svg"
 width="720.000000pt" height="318.000000pt" viewBox="0 0 720.000000 318.000000"
 preserveAspectRatio="xMidYMid meet">

<g transform="translate(0.000000,318.000000) scale(0.100000,-0.100000)"
fill="#000000" stroke="none">
<path d="M4457 2816 c-50 -18 -76 -42 -98 -91 -17 -36 -19 -71 -19 -385 0
-386 3 -402 71 -451 32 -22 45 -24 194 -29 l160 -5 3 -729 c2 -661 4 -731 19
-748 20 -22 56 -23 77 -2 9 8 17 16 18 17 2 1 5 331 8 732 l5 730 157 5 c170
5 185 10 232 74 20 26 21 42 24 379 2 194 0 367 -3 385 -9 50 -66 107 -120
121 -67 17 -679 14 -728 -3z m467 -186 c54 -12 87 -38 114 -90 36 -72 25 -176
-26 -234 -32 -36 -92 -56 -174 -56 -111 0 -108 3 -108 -99 0 -54 -5 -92 -12
-99 -7 -7 -33 -12 -58 -12 -25 0 -51 5 -58 12 -17 17 -17 559 0 576 14 14 262
16 322 2z"/>
<path d="M4738 2524 c-5 -4 -8 -40 -8 -80 0 -84 3 -87 88 -78 82 9 102 24 102
79 0 36 -5 48 -25 61 -27 17 -145 31 -157 18z"/>
<path d="M2445 2244 c-51 -18 -110 -66 -139 -113 -12 -20 -44 -90 -71 -156
-26 -66 -56 -139 -66 -162 l-18 -42 -68 20 c-109 31 -150 24 -178 -31 -19 -37
-20 -140 -1 -185 16 -37 68 -75 104 -75 28 0 28 -7 -2 -89 -46 -128 -51 -190
-51 -596 0 -357 1 -382 19 -408 33 -49 62 -57 206 -57 l130 0 38 34 37 34 3
111 4 111 758 0 758 0 4 -103 c6 -168 30 -187 228 -187 l130 0 38 34 37 34 3
374 c3 409 -5 504 -53 631 -14 37 -25 70 -25 72 0 3 12 5 28 5 31 0 76 27 99
60 10 14 18 51 20 94 8 133 -42 175 -169 143 -36 -9 -71 -19 -80 -22 -10 -4
-29 30 -72 137 -32 79 -66 161 -76 183 -22 49 -80 109 -134 138 -41 22 -44 22
-721 24 -572 1 -686 -1 -720 -13z m1331 -103 c55 -25 74 -55 143 -223 32 -78
80 -195 106 -260 55 -135 55 -161 0 -184 -30 -12 -161 -14 -889 -12 -824 3
-855 4 -875 22 -29 27 -26 63 13 158 19 46 66 162 105 258 42 102 83 186 99
203 53 58 38 56 672 56 549 1 587 -1 626 -18z m-1096 -971 c18 -18 20 -33 20
-130 0 -158 13 -150 -248 -150 -164 0 -212 3 -228 14 -16 13 -19 29 -22 129
-5 165 -18 157 248 157 197 0 211 -1 230 -20z m1400 0 c18 -18 20 -33 20 -130
0 -158 13 -150 -248 -150 -164 0 -212 3 -228 14 -17 13 -19 27 -19 136 0 109
2 123 19 136 16 11 64 14 228 14 195 0 209 -1 228 -20z"/>
</g>
</svg>
